<svg width="16" height="16" viewBox="0 0 16 16" fill="none" xmlns="http://www.w3.org/2000/svg">
<rect width="16" height="16" fill="#F5F5F5"/>
<g clip-path="url(#clip0_0_1)">
<rect width="1440" height="1024" transform="translate(-19 -290)" fill="#EBEBEB"/>
<mask id="path-2-inside-1_0_1" fill="white">
<path d="M-19 -230H235V736H-19V-230Z"/>
</mask>
<path d="M-19 -230H235V736H-19V-230Z" fill="#F1F2F5"/>
<path d="M234.5 -230V736H235.5V-230H234.5Z" fill="#F2F3F5" mask="url(#path-2-inside-1_0_1)"/>
<path d="M1.40317 0C0.627874 0 0 0.746667 0 1.66667V2.33333C0 3.25422 0.628622 4 1.40317 4H14.3124C15.0869 4 15.7156 3.25333 15.7156 2.33333V1.66667C15.7156 0.745778 15.0869 0 14.3124 0H1.40317Z" fill="#6C727F"/>
<path fill-rule="evenodd" clip-rule="evenodd" d="M1.1875 5.33334L1.59161 13.4898C1.62519 14.1685 1.87576 14.8063 2.29209 15.2729C2.70842 15.7395 3.25906 15.9996 3.83146 16H11.8816C12.4542 16 13.0052 15.7402 13.4219 15.2735C13.8385 14.8069 14.0893 14.1688 14.1229 13.4898L14.5278 5.33334H1.1875ZM5.79964 8.66668C5.79964 8.48987 5.85878 8.3203 5.96403 8.19527C6.06929 8.07025 6.21205 8.00001 6.36091 8.00001H9.35435C9.50321 8.00001 9.64597 8.07025 9.75123 8.19527C9.85649 8.3203 9.91562 8.48987 9.91562 8.66668C9.91562 8.84349 9.85649 9.01306 9.75123 9.13808C9.64597 9.26311 9.50321 9.33334 9.35435 9.33334H6.36091C6.21205 9.33334 6.06929 9.26311 5.96403 9.13808C5.85878 9.01306 5.79964 8.84349 5.79964 8.66668Z" fill="#6C727F"/>
</g>
<defs>
<clipPath id="clip0_0_1">
<rect width="1440" height="1024" fill="white" transform="translate(-19 -290)"/>
</clipPath>
</defs>
</svg>
