<svg width="16" height="16" viewBox="0 0 16 16" fill="none" xmlns="http://www.w3.org/2000/svg">
<rect width="16" height="16" fill="#F5F5F5"/>
<g clip-path="url(#clip0_0_1)">
<rect width="1440" height="1024" transform="translate(-19 -342)" fill="#EBEBEB"/>
<mask id="path-2-inside-1_0_1" fill="white">
<path d="M-19 -282H235V684H-19V-282Z"/>
</mask>
<path d="M-19 -282H235V684H-19V-282Z" fill="#F1F2F5"/>
<path d="M234.5 -282V684H235.5V-282H234.5Z" fill="#F2F3F5" mask="url(#path-2-inside-1_0_1)"/>
<path fill-rule="evenodd" clip-rule="evenodd" d="M5.14268 3.2C5.14268 2.35131 5.4437 1.53737 5.97951 0.937258C6.51533 0.337142 7.24205 0 7.9998 0C8.75756 0 9.48428 0.337142 10.0201 0.937258C10.5559 1.53737 10.8569 2.35131 10.8569 3.2C10.8569 4.04869 10.5559 4.86262 10.0201 5.46274C9.48428 6.06285 8.75756 6.4 7.9998 6.4C7.24205 6.4 6.51533 6.06285 5.97951 5.46274C5.4437 4.86262 5.14268 4.04869 5.14268 3.2ZM10.8569 5.76C10.8569 5.08104 11.0977 4.4299 11.5264 3.9498C11.955 3.46971 12.5364 3.2 13.1426 3.2C13.7488 3.2 14.3302 3.46971 14.7589 3.9498C15.1875 4.4299 15.4283 5.08104 15.4283 5.76C15.4283 6.43895 15.1875 7.0901 14.7589 7.57019C14.3302 8.05028 13.7488 8.31999 13.1426 8.31999C12.5364 8.31999 11.955 8.05028 11.5264 7.57019C11.0977 7.0901 10.8569 6.43895 10.8569 5.76ZM0.571289 5.76C0.571289 5.08104 0.812103 4.4299 1.24075 3.9498C1.66941 3.46971 2.25078 3.2 2.85699 3.2C3.46319 3.2 4.04457 3.46971 4.47322 3.9498C4.90187 4.4299 5.14268 5.08104 5.14268 5.76C5.14268 6.43895 4.90187 7.0901 4.47322 7.57019C4.04457 8.05028 3.46319 8.31999 2.85699 8.31999C2.25078 8.31999 1.66941 8.05028 1.24075 7.57019C0.812103 7.0901 0.571289 6.43895 0.571289 5.76ZM3.6646 10.3398C4.12932 9.52407 4.77017 8.85269 5.52791 8.38779C6.28565 7.92288 7.13582 7.67945 7.9998 7.67999C8.72347 7.67925 9.43912 7.8497 10.0999 8.18019C10.7607 8.51067 11.3517 8.99373 11.8342 9.59775C12.3168 10.2018 12.68 10.9131 12.9001 11.6852C13.1202 12.4574 13.1922 13.2728 13.1114 14.0783C13.1015 14.1783 13.0707 14.2744 13.0214 14.3586C12.9722 14.4428 12.9059 14.5128 12.828 14.563C11.3587 15.5072 9.69377 16.0027 7.9998 16C6.24363 16 4.59412 15.4777 3.17165 14.563C3.0937 14.5128 3.02741 14.4428 2.97816 14.3586C2.92891 14.2744 2.8981 14.1783 2.88822 14.0783C2.76027 12.7698 3.0341 11.4515 3.6646 10.3407V10.3398Z" fill="#6C727F"/>
<path d="M2.72918 9.60341C1.97776 10.9025 1.62767 12.4419 1.73262 13.9853C1.2751 13.9076 0.825127 13.7819 0.38863 13.6098L0.301012 13.5757C0.222837 13.5446 0.154385 13.4888 0.103945 13.415C0.0535058 13.3413 0.0232433 13.2527 0.0168233 13.1601L0.0092043 13.0568C-0.0215726 12.6284 0.0250182 12.1975 0.146197 11.7897C0.267375 11.3819 0.460658 11.0056 0.714512 10.6833C0.968366 10.361 1.27759 10.0993 1.62373 9.91373C1.96987 9.72819 2.34583 9.62265 2.72918 9.60341ZM14.2674 13.9853C14.3723 12.4419 14.0222 10.9025 13.2708 9.60341C13.6542 9.62265 14.0301 9.72819 14.3763 9.91373C14.7224 10.0993 15.0316 10.361 15.2855 10.6833C15.5393 11.0056 15.7326 11.3819 15.8538 11.7897C15.975 12.1975 16.0216 12.6284 15.9908 13.0568L15.9832 13.1601C15.9766 13.2526 15.9463 13.341 15.8959 13.4145C15.8454 13.4881 15.7771 13.5438 15.699 13.5748L15.6114 13.609C15.1794 13.7796 14.7306 13.9068 14.2674 13.9853Z" fill="#6C727F"/>
</g>
<defs>
<clipPath id="clip0_0_1">
<rect width="1440" height="1024" fill="white" transform="translate(-19 -342)"/>
</clipPath>
</defs>
</svg>
