<svg width="24" height="26" viewBox="0 0 24 26" fill="none" xmlns="http://www.w3.org/2000/svg">
<rect width="24" height="26" fill="#F5F5F5"/>
<g id="Facturacion ">
<g id="Pesta&#195;&#177;a Facturacion" clip-path="url(#clip0_0_1)">
<rect width="1440" height="1024" transform="translate(-1396 -17)" fill="#EBEBEB"/>
<g id="Header">
<g id="Rectangle 67">
<mask id="path-1-inside-1_0_1" fill="white">
<path d="M-1396 -17H44V43H-1396V-17Z"/>
</mask>
<path d="M-1396 -17H44V43H-1396V-17Z" fill="white"/>
<path d="M44 42.5H-1396V43.5H44V42.5Z" fill="#F2F3F5" mask="url(#path-1-inside-1_0_1)"/>
</g>
<path id="Usuario" fill-rule="evenodd" clip-rule="evenodd" d="M20.2277 22.036C21.4203 20.8767 22.3704 19.4767 23.0193 17.9225C23.6681 16.3683 24.0019 14.6929 24 13C24 6.14377 18.6277 0.586212 12 0.586212C5.37231 0.586212 8.01134e-06 6.14377 8.01134e-06 13C-0.00188553 14.6929 0.331905 16.3683 0.980746 17.9225C1.62959 19.4767 2.57969 20.8767 3.77231 22.036C5.99623 24.2092 8.94073 25.418 12 25.4138C15.0593 25.418 18.0038 24.2092 20.2277 22.036ZM4.79385 20.3999C5.65795 19.2816 6.75448 18.379 8.00202 17.7591C9.24955 17.1393 10.616 16.8182 12 16.8196C13.384 16.8182 14.7504 17.1393 15.998 17.7591C17.2455 18.379 18.3421 19.2816 19.2061 20.3999C18.2634 21.385 17.141 22.1666 15.904 22.6995C14.667 23.2323 13.34 23.5058 12 23.504C10.66 23.5058 9.33305 23.2323 8.09604 22.6995C6.85902 22.1666 5.73659 21.385 4.79385 20.3999ZM16.6154 9.18037C16.6154 10.4467 16.1291 11.6611 15.2636 12.5565C14.398 13.4519 13.2241 13.9549 12 13.9549C10.7759 13.9549 9.60198 13.4519 8.73643 12.5565C7.87088 11.6611 7.38462 10.4467 7.38462 9.18037C7.38462 7.91409 7.87088 6.69967 8.73643 5.80427C9.60198 4.90887 10.7759 4.40584 12 4.40584C13.2241 4.40584 14.398 4.90887 15.2636 5.80427C16.1291 6.69967 16.6154 7.91409 16.6154 9.18037Z" fill="#2A4DD0"/>
</g>
</g>
</g>
<defs>
<clipPath id="clip0_0_1">
<rect width="1440" height="1024" fill="white" transform="translate(-1396 -17)"/>
</clipPath>
</defs>
</svg>
