<svg width="16" height="16" viewBox="0 0 16 16" fill="none" xmlns="http://www.w3.org/2000/svg">
<rect width="16" height="16" fill="#F5F5F5"/>
<g clip-path="url(#clip0_0_1)">
<rect width="1440" height="1024" transform="translate(-19 -82)" fill="#EBEBEB"/>
<mask id="path-2-inside-1_0_1" fill="white">
<path d="M-19 -22H235V944H-19V-22Z"/>
</mask>
<path d="M-19 -22H235V944H-19V-22Z" fill="#F1F2F5"/>
<path d="M234.5 -22V944H235.5V-22H234.5Z" fill="#F2F3F5" mask="url(#path-2-inside-1_0_1)"/>
<path fill-rule="evenodd" clip-rule="evenodd" d="M0 2.66667C0 1.95942 0.280952 1.28115 0.781049 0.781049C1.28115 0.280952 1.95942 0 2.66667 0H4.66667C5.37391 0 6.05219 0.280952 6.55229 0.781049C7.05238 1.28115 7.33333 1.95942 7.33333 2.66667V4.66667C7.33333 5.37391 7.05238 6.05219 6.55229 6.55229C6.05219 7.05238 5.37391 7.33333 4.66667 7.33333H2.66667C1.95942 7.33333 1.28115 7.05238 0.781049 6.55229C0.280952 6.05219 0 5.37391 0 4.66667V2.66667ZM8.66667 2.66667C8.66667 1.95942 8.94762 1.28115 9.44771 0.781049C9.94781 0.280952 10.6261 0 11.3333 0H13.3333C14.0406 0 14.7189 0.280952 15.219 0.781049C15.719 1.28115 16 1.95942 16 2.66667V4.66667C16 5.37391 15.719 6.05219 15.219 6.55229C14.7189 7.05238 14.0406 7.33333 13.3333 7.33333H11.3333C10.6261 7.33333 9.94781 7.05238 9.44771 6.55229C8.94762 6.05219 8.66667 5.37391 8.66667 4.66667V2.66667ZM0 11.3333C0 10.6261 0.280952 9.94781 0.781049 9.44771C1.28115 8.94762 1.95942 8.66667 2.66667 8.66667H4.66667C5.37391 8.66667 6.05219 8.94762 6.55229 9.44771C7.05238 9.94781 7.33333 10.6261 7.33333 11.3333V13.3333C7.33333 14.0406 7.05238 14.7189 6.55229 15.219C6.05219 15.719 5.37391 16 4.66667 16H2.66667C1.95942 16 1.28115 15.719 0.781049 15.219C0.280952 14.7189 0 14.0406 0 13.3333V11.3333ZM8.66667 11.3333C8.66667 10.6261 8.94762 9.94781 9.44771 9.44771C9.94781 8.94762 10.6261 8.66667 11.3333 8.66667H13.3333C14.0406 8.66667 14.7189 8.94762 15.219 9.44771C15.719 9.94781 16 10.6261 16 11.3333V13.3333C16 14.0406 15.719 14.7189 15.219 15.219C14.7189 15.719 14.0406 16 13.3333 16H11.3333C10.6261 16 9.94781 15.719 9.44771 15.219C8.94762 14.7189 8.66667 14.0406 8.66667 13.3333V11.3333Z" fill="#6C727F"/>
</g>
<defs>
<clipPath id="clip0_0_1">
<rect width="1440" height="1024" fill="white" transform="translate(-19 -82)"/>
</clipPath>
</defs>
</svg>
